<svg width="42" height="42" viewBox="0 0 42 42" fill="none" xmlns="http://www.w3.org/2000/svg">
<path d="M38.2736 20.1247C37.1536 18.1822 30.9936 8.43465 20.5286 8.74965C10.8511 8.99465 5.2511 17.4997 3.7286 20.1247C3.575 20.3907 3.49414 20.6925 3.49414 20.9997C3.49414 21.3068 3.575 21.6086 3.7286 21.8747C4.8311 23.7822 10.7286 33.2497 21.0361 33.2497H21.4736C31.1511 33.0047 36.7686 24.4997 38.2736 21.8747C38.4272 21.6086 38.5081 21.3068 38.5081 20.9997C38.5081 20.6925 38.4272 20.3907 38.2736 20.1247ZM21.3861 29.7497C13.8436 29.9247 8.9261 23.4672 7.3861 20.9997C9.1361 18.1822 13.7036 12.4247 20.7036 12.2497C28.2111 12.0572 33.1461 18.5322 34.7036 20.9997C32.9011 23.8172 28.3861 29.5747 21.3861 29.7497Z" fill="#052016" fill-opacity="0.5"/>
<path d="M21 14.875C19.7886 14.875 18.6044 15.2342 17.5971 15.9072C16.5899 16.5803 15.8048 17.5369 15.3412 18.6561C14.8777 19.7753 14.7564 21.0068 14.9927 22.1949C15.229 23.3831 15.8124 24.4744 16.669 25.331C17.5256 26.1876 18.6169 26.771 19.8051 27.0073C20.9932 27.2436 22.2247 27.1223 23.3439 26.6588C24.4631 26.1952 25.4197 25.4101 26.0928 24.4029C26.7658 23.3956 27.125 22.2114 27.125 21C27.125 19.3755 26.4797 17.8176 25.331 16.669C24.1824 15.5203 22.6245 14.875 21 14.875ZM21 23.625C20.4808 23.625 19.9733 23.471 19.5416 23.1826C19.11 22.8942 18.7735 22.4842 18.5748 22.0045C18.3761 21.5249 18.3242 20.9971 18.4254 20.4879C18.5267 19.9787 18.7767 19.511 19.1438 19.1438C19.511 18.7767 19.9787 18.5267 20.4879 18.4254C20.9971 18.3242 21.5249 18.3761 22.0045 18.5748C22.4842 18.7735 22.8942 19.1099 23.1826 19.5416C23.4711 19.9733 23.625 20.4808 23.625 21C23.625 21.6962 23.3484 22.3639 22.8562 22.8562C22.3639 23.3484 21.6962 23.625 21 23.625Z" fill="#052016" fill-opacity="0.5"/>
</svg>
