<svg width="58" height="46" viewBox="0 0 58 46" fill="none" xmlns="http://www.w3.org/2000/svg">
<path d="M0 46V32.7683C0 28.9202 0.737914 24.9537 2.21374 20.8687C3.68957 16.7838 5.63766 12.9356 8.05802 9.32432C10.4784 5.6538 13.1349 2.54569 16.0275 0L27.8931 6.92664C25.7679 10.4788 23.9379 14.2973 22.4031 18.3822C20.8682 22.4672 20.1008 27.2625 20.1008 32.7683V46H0ZM30.1069 46V32.7683C30.1069 28.9202 30.8448 24.9537 32.3206 20.8687C33.7964 16.7838 35.7445 12.9356 38.1649 9.32432C40.5852 5.6538 43.2417 2.54569 46.1344 0L58 6.92664C55.8748 10.4788 54.0448 14.2973 52.5099 18.3822C50.9751 22.4672 50.2076 27.2625 50.2076 32.7683V46H30.1069Z" fill="black"/>
</svg>
