<svg width="91" height="91" viewBox="0 0 91 91" fill="none" xmlns="http://www.w3.org/2000/svg">
<rect x="20.5666" y="2.44949" width="70" height="70" rx="18" transform="rotate(15 20.5666 2.44949)" fill="white"/>
<rect x="20.5666" y="2.44949" width="70" height="70" rx="18" transform="rotate(15 20.5666 2.44949)" stroke="#F7F6F4" stroke-width="4"/>
<g clip-path="url(#clip0_164_67)">
<path d="M69.1308 30.2573C67.7549 29.6224 66.3285 29.1031 64.8664 28.7049C59.8736 27.3627 54.6002 27.4845 49.6747 29.0558C46.1744 25.2648 41.6597 22.5579 36.6667 21.2566C35.2014 20.8705 33.7064 20.607 32.1974 20.4689C31.7031 20.4238 31.2089 20.5566 30.8038 20.8435C30.3988 21.1304 30.1095 21.5524 29.988 22.0337L23.5175 46.1819C23.434 46.4764 23.4164 46.7857 23.4659 47.0878C23.5155 47.3899 23.6311 47.6774 23.8044 47.9297C23.9777 48.1821 24.2045 48.3932 24.4687 48.5479C24.7328 48.7027 25.0278 48.7973 25.3327 48.8251C28.3502 49.0985 31.2825 49.973 33.9569 51.3971C36.6312 52.8211 38.9935 54.766 40.9047 57.1171L41.1084 57.3227L41.3298 57.382C41.528 57.5348 41.7546 57.6468 41.9964 57.7116C42.2381 57.7764 42.4903 57.7926 42.7384 57.7594L42.9598 57.8188L43.239 57.7426C46.0634 56.6193 49.0846 56.0744 52.1234 56.1403C55.1623 56.2061 58.157 56.8814 60.9301 58.1261C61.208 58.2545 61.5108 58.32 61.8169 58.3181C62.1231 58.3162 62.425 58.2468 62.7013 58.1149C62.9776 57.983 63.2214 57.7918 63.4154 57.555C63.6094 57.3181 63.7488 57.0415 63.8237 56.7446L70.2942 32.5965C70.3961 32.1324 70.3363 31.6474 70.1247 31.2219C69.9131 30.7964 69.5624 30.4561 69.1308 30.2573ZM41.4992 51.5177C38.3009 48.5615 34.4307 46.4288 30.2231 45.3042C29.5591 45.1262 28.895 44.9483 28.2108 44.765L33.6029 24.6415C34.2834 24.7825 34.9553 24.9625 35.6152 25.1807C39.9096 26.3263 43.7714 28.7114 46.7187 32.0382L41.4992 51.5177ZM60.3868 53.4728C59.7026 53.2894 59.0385 53.1115 58.3744 52.9336C54.1683 51.8037 49.7502 51.7155 45.5023 52.6766L50.7434 33.1166C54.9592 31.7091 59.4962 31.5745 63.788 32.7296C64.4686 32.8706 65.1405 33.0506 65.8004 33.2688L60.3868 53.4728ZM60.5035 62.4549C59.1276 61.8199 57.7012 61.3006 56.2391 60.9024C51.2463 59.5602 45.9729 59.682 41.0474 61.2533C37.5674 57.4298 33.0613 54.6876 28.0663 53.3536C26.601 52.9674 25.1061 52.7039 23.5971 52.5658C23.324 52.5372 23.0479 52.5629 22.7848 52.6413C22.5216 52.7197 22.2766 52.8494 22.0638 53.0229C21.8509 53.1964 21.6745 53.4102 21.5445 53.6521C21.4146 53.894 21.3338 54.1592 21.3067 54.4325C21.269 54.9825 21.4507 55.525 21.8122 55.9412C22.1737 56.3574 22.6854 56.6134 23.2352 56.6531C26.2527 56.9265 29.185 57.801 31.8594 59.2251C34.5337 60.6492 36.896 62.594 38.8072 64.9451C39.083 65.2791 39.456 65.5188 39.8744 65.6309C40.2928 65.743 40.7357 65.722 41.1415 65.5706C43.9722 64.4901 46.9904 63.9869 50.0185 64.0908C53.0466 64.1947 56.0233 64.9035 58.7732 66.1755C59.2693 66.416 59.8404 66.4502 60.3615 66.2705C60.8827 66.0907 61.3114 65.7118 61.5536 65.2166C61.6668 64.9664 61.7295 64.6964 61.7379 64.4219C61.7463 64.1474 61.7004 63.874 61.6028 63.6174C61.5053 63.3607 61.3579 63.1259 61.1692 62.9264C60.9805 62.7269 60.7543 62.5666 60.5035 62.4549Z" fill="#63B32C"/>
</g>
<defs>
<clipPath id="clip0_164_67">
<rect width="50" height="50" fill="white" transform="translate(27.6377 14.6973) rotate(15)"/>
</clipPath>
</defs>
</svg>
