<svg width="214" height="214" viewBox="0 0 214 214" fill="none" xmlns="http://www.w3.org/2000/svg">
<rect x="46.4494" y="2.44949" width="170" height="170" rx="38" transform="rotate(15 46.4494 2.44949)" fill="white"/>
<rect x="46.4494" y="2.44949" width="170" height="170" rx="38" transform="rotate(15 46.4494 2.44949)" stroke="#F7F6F4" stroke-width="4"/>
<g clip-path="url(#clip0_164_61)">
<path d="M161.711 87.9548C161.711 87.2719 161.576 86.5957 161.313 85.9653C161.051 85.3349 160.666 84.7628 160.181 84.2821L138.241 62.3566C137.763 61.8727 137.195 61.4879 136.568 61.2242C135.942 60.9604 135.269 60.823 134.589 60.8197C133.909 60.8164 133.235 60.9474 132.606 61.205C131.977 61.4627 131.405 61.842 130.923 62.3212L113.815 79.454L107.567 56.063C107.388 55.4068 107.083 54.7922 106.667 54.2545C106.25 53.7167 105.732 53.2664 105.142 52.9293C104.551 52.5922 103.9 52.375 103.226 52.29C102.551 52.2051 101.866 52.2541 101.211 52.4343L71.2479 60.4526C70.5874 60.6263 69.968 60.9293 69.4254 61.344C68.8827 61.7586 68.4277 62.2767 68.0866 62.8684C67.4174 64.0447 67.2364 65.4367 67.5827 66.7451L78.4119 106.18C75.0916 109.663 72.6415 113.882 71.2616 118.492C70.0351 123.022 69.8531 127.771 70.7292 132.381C71.6052 136.992 73.5166 141.343 76.3191 145.107C79.1216 148.871 82.7421 151.95 86.9077 154.111C91.0732 156.272 95.6751 157.459 100.366 157.583C105.057 157.707 109.716 156.764 113.989 154.826C118.263 152.887 122.041 150.004 125.038 146.393C128.035 142.782 130.173 138.537 131.291 133.98C132.41 129.422 132.478 124.67 131.492 120.082L159.996 91.5605C160.506 91.1033 160.921 90.549 161.215 89.93C161.51 89.311 161.678 88.6396 161.711 87.9548ZM79.1352 69.1452L99.0772 63.7907L107.632 96.1439C100.668 94.7317 93.4306 95.7793 87.1534 99.1081L79.1352 69.1452ZM95.8564 146.478C90.562 145.059 86.048 141.596 83.3074 136.849C80.5669 132.102 79.8242 126.461 81.2428 121.167C82.6615 115.872 86.1252 111.358 90.872 108.618C95.6188 105.877 101.26 105.134 106.554 106.553C111.849 107.972 116.363 111.435 119.103 116.182C121.844 120.929 122.586 126.57 121.168 131.864C119.749 137.159 116.285 141.673 111.539 144.413C106.792 147.154 101.151 147.897 95.8564 146.478ZM127.118 109.656C125.072 106.455 122.445 103.665 119.374 101.43L116.93 90.9864L134.61 73.3118L149.203 87.9199L127.118 109.656Z" fill="#63B32C"/>
</g>
<defs>
<clipPath id="clip0_164_61">
<rect width="124" height="124" fill="white" transform="translate(62.7129 30.6182) rotate(15)"/>
</clipPath>
</defs>
</svg>
