<svg width="214" height="214" viewBox="0 0 214 214" fill="none" xmlns="http://www.w3.org/2000/svg">
<rect x="2.44949" y="46.4494" width="170" height="170" rx="38" transform="rotate(-15 2.44949 46.4494)" fill="white"/>
<rect x="2.44949" y="46.4494" width="170" height="170" rx="38" transform="rotate(-15 2.44949 46.4494)" stroke="#F7F6F4" stroke-width="4"/>
<g clip-path="url(#clip0_164_58)">
<path d="M151.492 84.8301L145.766 83.4225L94.1641 70.5045L93.6152 70.6516C93.2745 70.6042 92.9302 70.589 92.5867 70.6062L91.6385 70.8603L90.7402 71.101C90.4179 71.2622 90.1107 71.4519 89.8223 71.6679L89.2733 71.815L51.0439 108.803C50.3925 109.444 49.9228 110.247 49.6827 111.128C49.4427 112.01 49.4408 112.94 49.6773 113.823C49.9139 114.706 50.3804 115.51 51.0292 116.154C51.6781 116.797 52.486 117.257 53.3707 117.487L67.6427 121.044L73.9812 144.7C75.0452 148.67 77.643 152.056 81.2031 154.111C84.7632 156.167 88.994 156.724 92.9648 155.66L132.89 144.962C136.86 143.898 140.246 141.3 142.301 137.74C144.357 134.18 144.914 129.949 143.85 125.978L137.511 102.323L145.995 94.059L149.819 108.332C150.174 109.656 151.04 110.784 152.227 111.469C153.413 112.154 154.824 112.34 156.147 111.985C157.471 111.631 158.599 110.765 159.284 109.578C159.97 108.392 160.155 106.981 159.801 105.658L155.201 88.4899C154.962 87.606 154.493 86.8013 153.841 86.1583C153.19 85.5152 152.379 85.0568 151.492 84.8301ZM133.869 128.653C134.223 129.976 134.038 131.387 133.352 132.573C132.667 133.76 131.539 134.626 130.215 134.981L90.2903 145.679C88.9667 146.033 87.5564 145.848 86.3697 145.162C85.183 144.477 84.3171 143.349 83.9624 142.025L79.1083 123.909L104.959 130.355L105.788 130.454L106.237 130.333C106.665 130.275 107.084 130.162 107.485 129.999C107.913 129.94 108.332 129.828 108.732 129.665L109.182 129.544C109.431 129.418 109.658 129.248 109.85 129.044L129.014 110.537L133.869 128.653ZM104.717 119.669L64.92 109.685L94.3932 81.1409L134.19 91.1243L104.717 119.669Z" fill="#63B32C"/>
</g>
<defs>
<clipPath id="clip0_164_58">
<rect width="124" height="124" fill="white" transform="translate(30.6187 62.7129) rotate(-15)"/>
</clipPath>
</defs>
</svg>
