<svg width="91" height="91" viewBox="0 0 91 91" fill="none" xmlns="http://www.w3.org/2000/svg">
<rect x="2.44949" y="20.5666" width="70" height="70" rx="18" transform="rotate(-15 2.44949 20.5666)" fill="white"/>
<rect x="2.44949" y="20.5666" width="70" height="70" rx="18" transform="rotate(-15 2.44949 20.5666)" stroke="#F7F6F4" stroke-width="4"/>
<g clip-path="url(#clip0_164_64)">
<path d="M64.9018 37.9096C64.5273 36.4897 63.7844 35.194 62.7481 34.1536C61.7118 33.1132 60.419 32.3651 59.0006 31.9851C58.9376 31.6288 58.8438 31.2787 58.7202 30.9386C58.2912 29.3375 57.2437 27.9724 55.8082 27.1436C54.3727 26.3148 52.6667 26.0902 51.0656 26.5192L50.7034 26.6163C50.1193 25.777 49.3383 25.0938 48.4287 24.6267C47.5191 24.1595 46.5089 23.9227 45.4865 23.9369C44.4641 23.9511 43.4608 24.2159 42.5645 24.7082C41.6683 25.2004 40.9065 25.905 40.346 26.7602C39.433 26.2998 38.421 26.0705 37.3987 26.0923C36.3765 26.1142 35.3752 26.3865 34.4826 26.8854C33.5901 27.3843 32.8336 28.0945 32.2795 28.9539C31.7253 29.8132 31.3905 30.7954 31.3044 31.8142L30.9421 31.9113C29.341 32.3403 27.9759 33.3878 27.1471 34.8233C26.3183 36.2589 26.0937 37.9648 26.5227 39.566C26.5857 39.9222 26.6795 40.2723 26.8031 40.6124C25.834 41.5639 25.1122 42.738 24.7004 44.0322C24.2887 45.3265 24.1995 46.7018 24.4407 48.0384C24.6819 49.375 25.2461 50.6324 26.0843 51.7011C26.9224 52.7698 28.0091 53.6175 29.2497 54.1703C28.9198 55.5771 28.9613 57.0455 29.3703 58.4314C29.7792 59.8172 30.5415 61.073 31.5823 62.0753C32.623 63.0776 33.9066 63.7921 35.3068 64.1486C36.7071 64.5051 38.1761 64.4914 39.5694 64.1088L39.9317 64.0118C40.5157 64.851 41.2968 65.5342 42.2063 66.0014C43.1159 66.4685 44.1261 66.7054 45.1486 66.6912C46.171 66.677 47.1743 66.4121 48.0705 65.9199C48.9667 65.4276 49.7285 64.723 50.289 63.8679C51.202 64.3282 52.214 64.5575 53.2363 64.5357C54.2586 64.5139 55.2599 64.2416 56.1524 63.7427C57.0449 63.2438 57.8014 62.5335 58.3555 61.6742C58.9097 60.8149 59.2445 59.8327 59.3307 58.8138L59.6929 58.7168C61.0777 58.3363 62.3407 57.6044 63.3594 56.5921C64.378 55.5798 65.1178 54.3214 65.5069 52.939C65.896 51.5566 65.9212 50.097 65.5801 48.702C65.239 47.307 64.5432 46.0237 63.5602 44.9768C64.2974 43.9738 64.8006 42.8184 65.0328 41.5954C65.265 40.3725 65.2202 39.113 64.9018 37.9096ZM41.4449 38.9106C40.9394 38.7774 40.4242 38.6847 39.904 38.6334C39.3512 38.5984 38.8072 38.7845 38.3916 39.1507C37.976 39.5169 37.7229 40.0331 37.688 40.5859C37.6531 41.1387 37.8391 41.6827 38.2053 42.0983C38.5715 42.5139 39.0878 42.767 39.6406 42.8019C40.4902 42.8744 41.2972 43.2058 41.9525 43.7515C42.6079 44.2971 43.08 45.0307 43.3052 45.8532L44.1409 48.9724C43.6355 48.8391 43.1202 48.7464 42.6 48.6951C42.0472 48.6601 41.5032 48.8462 41.0876 49.2124C40.672 49.5786 40.4189 50.0949 40.384 50.6476C40.3491 51.2004 40.5352 51.7445 40.9014 52.16C41.2675 52.5756 41.7838 52.8287 42.3366 52.8636C43.1863 52.9361 43.9932 53.2676 44.6486 53.8132C45.3039 54.3589 45.776 55.0925 46.0012 55.915L47.0796 59.9397C47.2226 60.4734 47.1478 61.042 46.8715 61.5205C46.5952 61.999 46.1402 62.3482 45.6065 62.4912C45.2165 62.593 44.8053 62.5794 44.4229 62.4522C44.0404 62.325 43.703 62.0896 43.4517 61.7745C43.7361 61.4861 43.9994 61.1776 44.2397 60.8516C44.3979 60.6279 44.5104 60.3753 44.571 60.1082C44.6315 59.841 44.6388 59.5645 44.5925 59.2946C44.5462 59.0246 44.4472 58.7663 44.3011 58.5346C44.155 58.3029 43.9647 58.1022 43.741 57.9441C43.5174 57.7859 43.2648 57.6733 42.9976 57.6128C42.7304 57.5523 42.454 57.5449 42.184 57.5912C41.914 57.6376 41.6558 57.7366 41.4241 57.8827C41.1924 58.0288 40.9917 58.2191 40.8335 58.4428C40.2708 59.2491 39.4411 59.8306 38.491 60.0841C37.4236 60.3701 36.2863 60.2204 35.3293 59.6679C34.3723 59.1153 33.6739 58.2053 33.3879 57.1379C33.1946 56.3778 33.2197 55.5786 33.4603 54.8322C33.9336 54.7922 34.4024 54.7099 34.8611 54.5863C35.3948 54.4433 35.8498 54.0941 36.1261 53.6156C36.4023 53.1371 36.4772 52.5685 36.3342 52.0347C36.1912 51.501 35.842 51.046 35.3635 50.7697C34.885 50.4935 34.3164 50.4186 33.7826 50.5616C33.308 50.6917 32.8128 50.7292 32.324 50.6721C31.5303 50.605 30.7725 50.3118 30.1403 49.8272C29.5081 49.3427 29.0281 48.6871 28.757 47.9381C28.486 47.1891 28.4353 46.3781 28.611 45.6012C28.7867 44.8243 29.1813 44.114 29.7483 43.5545C30.1047 43.741 30.4778 43.8938 30.8627 44.0108C31.3985 44.1532 31.969 44.077 32.4486 43.7988C32.9282 43.5207 33.2776 43.0634 33.4201 42.5275C33.5625 41.9917 33.4863 41.4212 33.2081 40.9416C32.9299 40.462 32.4726 40.1126 31.9368 39.9701C31.6116 39.8898 31.3139 39.7238 31.0747 39.4894C30.802 39.2161 30.6183 38.867 30.5474 38.4875C30.4044 37.9538 30.4793 37.3852 30.7555 36.9067C31.0318 36.4282 31.4868 36.079 32.0205 35.936C32.1555 35.8789 32.2977 35.8408 32.4431 35.8228C32.6363 36.1175 32.8487 36.3993 33.0789 36.6661C33.2722 36.8615 33.5022 37.0167 33.7556 37.1228C34.0091 37.2289 34.2811 37.2838 34.5559 37.2843C34.8307 37.2849 35.1029 37.231 35.3568 37.1259C35.6107 37.0208 35.8413 36.8666 36.0353 36.672C36.4096 36.284 36.6188 35.7661 36.6192 35.227C36.6195 34.688 36.4109 34.1698 36.0372 33.7813C35.7857 33.5179 35.6032 33.1963 35.506 32.8452C35.363 32.3115 35.4379 31.7429 35.7142 31.2644C35.9904 30.7858 36.4455 30.4367 36.9792 30.2937C37.5129 30.1507 38.0815 30.2255 38.56 30.5018C39.0386 30.7781 39.3877 31.2331 39.5307 31.7668L41.4449 38.9106ZM59.2492 43.4575C58.8545 43.7514 58.4069 43.9665 57.9308 44.0911C57.3971 44.2341 56.942 44.5833 56.6658 45.0618C56.3895 45.5403 56.3146 46.109 56.4576 46.6427C56.6007 47.1764 56.9498 47.6314 57.4283 47.9077C57.9068 48.184 58.4755 48.2588 59.0092 48.1158C59.4682 47.9936 59.9153 47.8304 60.3452 47.6284C60.9268 48.1545 61.3482 48.8341 61.5608 49.589C61.8468 50.6564 61.697 51.7937 61.1445 52.7507C60.592 53.7077 59.6819 54.4061 58.6145 54.6921C57.6649 54.9475 56.6556 54.8589 55.7651 54.4418C55.2626 54.2104 54.6888 54.188 54.1698 54.3797C53.6509 54.5713 53.2293 54.9612 52.9978 55.4637C52.7664 55.9662 52.744 56.5401 52.9356 57.059C53.1273 57.578 53.5172 57.9996 54.0197 58.231C54.3908 58.3933 54.7731 58.5287 55.1636 58.6363C55.1035 59.0348 54.929 59.4074 54.6614 59.7088C54.3938 60.0102 54.0445 60.2275 53.6559 60.3344C53.1221 60.4774 52.5535 60.4025 52.075 60.1263C51.5965 59.85 51.2473 59.3949 51.1043 58.8612L50.0259 54.8365C49.8097 54.0117 49.8517 53.1403 50.1464 52.3401C50.4411 51.5398 50.9743 50.8493 51.6739 50.3617C52.1351 50.0551 52.4557 49.5777 52.565 49.0348C52.6743 48.4918 52.5635 47.9276 52.2569 47.4663C51.9502 47.0051 51.4729 46.6845 50.9299 46.5752C50.3869 46.4659 49.8227 46.5767 49.3615 46.8833C48.9366 47.1879 48.5367 47.5258 48.1656 47.894L47.3299 44.7748C47.1136 43.9499 47.1557 43.0786 47.4504 42.2783C47.7451 41.4781 48.2782 40.7876 48.9778 40.3C49.4391 39.9933 49.7597 39.516 49.869 38.973C49.9783 38.43 49.8675 37.8659 49.5608 37.4046C49.2542 36.9433 48.7769 36.6228 48.2339 36.5135C47.6909 36.4041 47.1267 36.515 46.6654 36.8216C46.2406 37.1262 45.8407 37.4641 45.4696 37.8322L43.5554 30.6884C43.4124 30.1547 43.4873 29.586 43.7635 29.1075C44.0398 28.629 44.4948 28.2799 45.0286 28.1369C45.5623 27.9938 46.1309 28.0687 46.6094 28.345C47.0879 28.6212 47.4371 29.0763 47.5801 29.61C47.6715 29.9626 47.6742 30.3323 47.5881 30.6863C47.5154 30.9506 47.4957 31.2267 47.5299 31.4987C47.5642 31.7707 47.6518 32.0333 47.7877 32.2714C47.9236 32.5095 48.1052 32.7184 48.322 32.8862C48.5389 33.0539 48.7867 33.1773 49.0513 33.2491C49.3166 33.3206 49.5934 33.3389 49.8659 33.3029C50.1383 33.267 50.401 33.1775 50.6387 33.0397C50.8764 32.9018 51.0845 32.7183 51.2509 32.4996C51.4174 32.281 51.539 32.0316 51.6087 31.7658C51.6719 31.3993 51.7096 31.0289 51.7214 30.6572C51.8564 30.6 51.9986 30.5619 52.144 30.5439C52.6777 30.4009 53.2464 30.4758 53.7249 30.752C54.2034 31.0283 54.5525 31.4834 54.6956 32.0171C54.7982 32.4124 54.7823 32.8291 54.65 33.2155C54.5554 33.5208 54.3844 33.7967 54.1531 34.0173C53.7603 34.4086 53.539 34.9398 53.5379 35.4943C53.5368 36.0487 53.756 36.5809 54.1472 36.9737C54.5385 37.3665 55.0698 37.5878 55.6242 37.5889C56.1787 37.59 56.7108 37.3708 57.1037 36.9796C57.4126 36.6874 57.6869 36.3606 57.9211 36.0056C58.6923 36.1994 59.392 36.6097 59.9375 37.1883C60.483 37.7668 60.8516 38.4894 60.9997 39.2707C61.1478 40.0519 61.0693 40.8593 60.7733 41.5973C60.4774 42.3354 59.9765 42.9734 59.3297 43.4359L59.2492 43.4575Z" fill="#63B32C"/>
</g>
<defs>
<clipPath id="clip0_164_64">
<rect width="50" height="50" fill="white" transform="translate(14.697 27.6377) rotate(-15)"/>
</clipPath>
</defs>
</svg>
