<svg width="1770" height="800" viewBox="0 0 1770 800" fill="none" xmlns="http://www.w3.org/2000/svg">
<g clip-path="url(#clip0_164_54)">
<rect width="1770" height="800" rx="40" fill="#F7F6F4"/>
<g filter="url(#filter0_f_164_54)">
<path d="M309.453 347.583C-28.3549 166.8 -530.936 67.2013 -740 40V905H2510V144.829C2443.34 151.525 2263.75 165.67 2078.65 168.683C1847.27 172.449 1389.48 415.377 1202.73 472.5C1015.98 529.623 731.714 573.563 309.453 347.583Z" fill="url(#paint0_linear_164_54)"/>
</g>
<path d="M-521.62 1046.26L-518.859 1037.9C-409.476 1057.38 -304.925 1087.47 -203.708 1116.57C-87.3095 1150 33.0001 1184.61 160.096 1202.67C321.122 1225.57 452.818 1271.22 592.68 1319.7C613.499 1326.89 634.547 1334.16 656.056 1341.52C674.919 1347.96 695.162 1355.48 716.671 1363.42C811.791 1398.87 930.26 1442.92 1024.58 1422.86C1188.59 1388 1233.22 1257.51 1276.35 1131.28C1315.46 1016.75 1355.83 898.383 1485.57 850.483C1633.48 795.812 1709.51 865.363 1805.67 953.305C1841.32 985.907 1872.61 1017.92 1902.97 1048.85C1994.99 1142.31 2073.77 1222.98 2229.85 1284.17L2224.45 1291.53C2065.95 1229.42 1982.22 1144.07 1893.54 1053.7C1863.29 1022.86 1832.12 990.922 1796.58 958.487C1703.76 873.471 1630.38 806.345 1490.75 858.173C1365.72 904.318 1325.92 1020.85 1287.51 1133.54C1243.57 1262.02 1198.25 1394.94 1027.8 1431.13C929.11 1452.12 808.455 1407.22 711.38 1371.11C690.101 1363.17 669.858 1355.65 651.11 1349.29C629.601 1341.94 608.553 1334.66 587.735 1327.48C442.581 1277.32 317.096 1234.1 157.795 1211.45C29.7796 1193.14 -91.1051 1158.36 -207.964 1124.76C-308.72 1095.58 -412.927 1065.32 -521.62 1046.26Z" fill="#F7F6F4" fill-opacity="0.1"/>
<path d="M-522.079 971.109L-518.399 963.251C-408.901 990.085 -309.525 1032.97 -213.369 1074.43C-94.4401 1125.84 28.1698 1178.93 169.067 1199.82C351.832 1227.24 495.145 1266.28 663.648 1314.43C683.316 1320.03 704.479 1326.72 726.908 1333.83C822.143 1364 940.612 1401.62 1030.79 1380.39C1189.51 1343.02 1225.17 1215.04 1259.67 1091.23C1291.07 978.8 1323.51 862.435 1448.42 813.616C1591.04 757.858 1674.2 829.75 1770.47 913.01L1775.19 917.19C1812.57 949.541 1845.92 981.391 1878.13 1012.15C1976.82 1106.53 2062.16 1187.7 2222.26 1249.15L2216.97 1256.59C2054.45 1194.64 1963.93 1108.46 1868.93 1017.17C1836.84 986.49 1803.6 954.724 1766.45 922.624L1761.62 918.444C1664.77 834.849 1588.28 768.391 1453.94 820.972C1333.75 867.953 1301.77 982.311 1270.95 1092.91C1235.87 1219.05 1199.52 1349.46 1034.35 1388.33C940.037 1410.57 819.268 1372.28 722.307 1341.52C699.994 1334.41 678.945 1327.81 659.507 1322.21C491.695 1274.22 348.957 1235.35 166.997 1208.02C24.6041 1186.7 -99.2709 1133.2 -219.005 1081.45C-314.931 1040.24 -413.732 997.692 -522.079 971.109Z" fill="#F7F6F4" fill-opacity="0.1"/>
<path d="M-522.425 902.897L-518.169 895.206C-405.681 927.808 -308.146 981.643 -213.83 1033.64C-95.4763 1098.93 26.7888 1166.47 176.313 1189.21C343.042 1213.93 507.645 1245.69 669.283 1284.34C690.101 1289.36 712.645 1295.46 736.453 1301.98C831.229 1327.73 949.238 1359.83 1035.5 1338.09C1190.66 1299.05 1219.53 1173.08 1246.33 1051.19C1271.17 940.347 1296.94 825.488 1418.17 776C1556.19 719.322 1645.79 793.471 1740.22 871.967L1750.23 880.326C1788.99 912.343 1823.95 944.109 1857.65 974.788C1957.95 1065.91 2053.19 1152.01 2215.71 1213.12L2210.42 1220.56C2045.14 1158.61 1949.67 1071.84 1848.68 979.971C1814.98 949.375 1779.67 917.693 1741.6 885.843L1731.59 877.484C1636.24 798.403 1553.89 730.106 1423.69 783.44C1307.29 831.089 1281.99 943.691 1257.6 1052.62C1229.65 1176.92 1200.78 1305.41 1039.07 1346.03C948.778 1368.77 828.698 1336.09 732.198 1309.92C708.504 1303.4 686.19 1297.3 665.372 1292.37C504.16 1253.79 339.977 1222.11 173.667 1197.49C21.958 1174 -101.457 1106.2 -220.731 1040.24C-314.471 988.581 -411.432 935.081 -522.425 902.897Z" fill="#F7F6F4" fill-opacity="0.1"/>
<path d="M-522.539 843.795L-518.053 836.104C-400.619 872.05 -303.544 934.161 -209.688 994.182C-88.5737 1071.59 25.8696 1144.65 181.375 1168.14L242.565 1177.34C388.293 1199.07 525.855 1219.64 673.309 1249.82C695.738 1254.41 720.007 1260.18 745.541 1266.53C843.767 1289.86 955.105 1316.69 1039.76 1295.63C1194 1257.59 1216.77 1132.2 1238.86 1010.57C1258.75 900.723 1279.34 787.034 1397.58 737.044C1532.96 679.782 1623.59 752.844 1719.63 830.169L1733.67 841.454C1773.35 873.304 1809.46 904.986 1844.43 935.582C1948.75 1027.54 2047.44 1113.72 2211.91 1174.91L2206.62 1182.35C2040.31 1120.33 1940.58 1033.22 1835.46 940.932C1800.95 910.337 1764.61 878.738 1725.04 847.055L1711.01 835.77C1618.3 761.036 1530.66 690.398 1403.33 744.233C1290.04 792.217 1269.8 903.816 1250.24 1011.74C1227.24 1135.62 1204.23 1263.78 1043.21 1303.4C954.99 1325.05 841.697 1298.05 741.745 1274.31C716.211 1268.21 692.172 1262.44 669.974 1257.59C522.98 1227.58 385.533 1207.43 240.034 1185.28L178.729 1176.08C20.5786 1152.26 -100.306 1074.93 -217.165 1000.54C-310.445 940.849 -406.83 879.239 -522.539 843.795Z" fill="#F7F6F4" fill-opacity="0.1"/>
<path d="M-522.425 795.727L-518.169 788.037C-393.029 824.233 -295.608 891.193 -201.293 956.062C-84.7793 1036.06 25.1789 1111.72 182.639 1134.37C211.011 1138.49 239.19 1142.51 267.178 1146.41C405.2 1166.14 536.666 1184.78 674.229 1209.86C698.498 1214.29 725.067 1220.22 753.362 1226.58C850.552 1248.23 960.395 1272.8 1040.91 1252.57C1195.84 1213.62 1215.51 1089.23 1234.6 969.02C1251.97 859.928 1269.8 747.159 1387.92 696.584C1522.72 638.987 1617.61 714.222 1709.51 787.284L1726.3 800.659C1766.56 832.342 1803.37 864.024 1838.91 894.62C1945.64 986.575 2045.94 1073.01 2210.3 1134.45L2205.01 1141.89C2039.04 1079.7 1937.59 992.426 1830.17 899.97C1794.63 869.458 1757.93 837.859 1717.91 806.344L1701 792.969C1608.18 719.238 1520.54 649.687 1394.36 703.689C1281.18 752.174 1263.58 862.52 1246.68 969.856C1227.12 1092.74 1206.99 1219.72 1045.16 1260.35C960.97 1281.5 848.827 1256.59 749.911 1234.52C721.846 1228.25 695.392 1222.4 671.468 1217.8C534.136 1192.72 403.36 1174.16 264.993 1154.43C237.005 1150.48 208.825 1146.46 180.454 1142.4C19.428 1119.24 -96.6257 1039.24 -209.229 961.914C-302.739 898.131 -399.355 831.255 -522.425 795.727Z" fill="#F7F6F4" fill-opacity="0.1"/>
<path d="M-510.118 756.939L-505.863 749.165C-379.342 785.445 -282.037 853.241 -188.066 918.779C-73.0479 998.947 35.5295 1074.68 193.45 1097.67C247.164 1105.45 301.453 1112.97 353.901 1120.16C458.568 1134.62 566.801 1149.5 674.228 1167.72C699.187 1171.9 726.447 1177.76 755.316 1183.86C849.862 1203.92 956.829 1226.58 1035.73 1206.85C1188.36 1168.73 1211.83 1046.93 1234.6 929.145C1255.19 822.478 1276.47 711.798 1392.98 662.143C1526.75 604.796 1617.73 676.605 1714.11 752.676L1729.75 764.379C1768.86 795.059 1804.75 825.654 1839.48 855.247C1945.64 945.613 2045.83 1030.8 2208.23 1092.57L2202.83 1099.93C2038.12 1037.9 1936.79 951.883 1830.28 860.931C1795.77 831.422 1759.77 800.91 1720.78 770.314L1705.6 758.36C1612.55 684.797 1524.68 615.413 1398.85 669.415C1287.16 717.315 1266.23 825.654 1245.99 930.315C1222.98 1050.61 1198.71 1174.91 1039.53 1214.54C957.174 1235.1 848.251 1212.03 751.981 1191.63C723.111 1185.53 695.967 1179.76 671.468 1175.58C564.27 1157.44 456.268 1142.14 351.716 1128.1C299.152 1120.91 244.864 1113.47 190.69 1105.61C29.6638 1082.12 -85.3548 1002.04 -196.463 924.547C-289.168 859.845 -385.553 792.634 -510.118 756.939Z" fill="#F7F6F4" fill-opacity="0.1"/>
<path d="M-476.187 723.418L-471.931 715.727C-345.411 752.258 -249.945 821.141 -157.47 887.682C-44.407 969.104 62.4453 1046.01 220.366 1068.58C271.779 1075.85 338.375 1088.64 408.881 1102.02C619.825 1142.48 882.413 1192.8 1025.04 1158.2C1174.56 1121.92 1204.58 1005.3 1233.56 892.447C1259.79 790.378 1286.93 684.797 1402.07 636.898C1536.41 581.056 1627.04 651.861 1723.08 726.762L1734.59 735.623C1772.31 764.965 1806.93 794.14 1840.29 822.144C1943.8 909.334 2041.57 991.675 2200.64 1051.28L2195.35 1058.72C2034.32 998.362 1935.87 915.436 1831.55 827.661C1798.31 799.573 1763.8 770.566 1726.19 741.391L1714.69 732.447C1617.96 657.211 1534.34 591.589 1407.82 644.17C1297.4 690.148 1270.72 793.805 1244.95 894.036C1215.39 1009.15 1184.8 1128.1 1028.83 1166.14C882.873 1201.5 618.445 1150.84 406.006 1110.13C335.729 1096.59 269.364 1083.88 218.295 1076.69C57.2693 1053.7 -56.1389 972.28 -165.522 893.534C-257.306 827.661 -352.082 759.364 -476.187 723.418Z" fill="#F7F6F4" fill-opacity="0.1"/>
<path d="M-424.659 694.243L-420.173 686.553C-296.413 724.923 -201.638 793.721 -109.623 860.179C10.3415 947.369 123.75 1029.71 296.048 1047.77C348.266 1053.28 416.472 1064.49 488.589 1076.19C667.443 1105.36 890.004 1141.73 1017.67 1116.4C1159.95 1088.14 1204.35 972.03 1247.71 859.762C1280.03 775.498 1313.39 688.392 1388.38 640.074C1514.21 558.987 1605.53 612.07 1721.01 695.832C1768.17 730.106 1809.81 764.38 1850.18 797.567C1947.71 877.985 2039.96 953.973 2189.94 1010.23L2184.65 1017.67C2032.71 960.661 1939.89 883.92 1841.55 803.084C1801.3 770.064 1759.77 736.208 1712.85 701.683C1597.83 618.674 1514.55 569.938 1395.97 646.344C1323.51 692.99 1290.61 778.925 1258.75 862.018C1214.93 976.544 1169.61 1095 1021.01 1124.42C890.579 1150.34 666.523 1113.72 486.404 1084.3C414.517 1072.59 346.541 1061.48 294.668 1056.04C118.689 1037.57 -1.3904 950.462 -117.444 866.115C-208.999 800.158 -302.969 731.945 -424.659 694.243Z" fill="#F7F6F4" fill-opacity="0.1"/>
<path d="M-359.674 668.329L-355.073 660.638C-235.914 699.009 -144.474 769.312 -56.0247 837.525C62.0994 928.477 174.012 1014.33 344.355 1028.96C383.346 1032.22 430.734 1037.32 480.882 1043.17C653.41 1062.4 869.07 1086.47 997.661 1062.48C1137.87 1036.4 1191.58 930.817 1243.57 828.414C1283.02 751.088 1324.08 671.171 1401.84 626.03C1531.92 550.795 1623.48 602.707 1729.64 678.194C1774.73 710.21 1813.95 742.06 1852.02 772.907C1944.03 847.39 2030.87 917.693 2174.99 968.937L2169.93 976.46C2023.97 924.715 1936.79 853.826 1843.62 778.758C1805.67 747.995 1766.44 716.313 1721.7 684.463C1619.68 611.903 1531.81 561.997 1409.08 632.885C1333.4 676.522 1293.37 755.352 1254.5 831.59C1201.47 935.749 1146.72 1043.42 1000.65 1070.59C869.76 1094.91 653.295 1070.59 479.272 1051.36C429.239 1045.84 381.851 1040.58 343.09 1037.23C168.262 1022.27 50.4827 931.57 -64.5361 843.293C-152.065 775.832 -242.7 705.863 -359.674 668.329Z" fill="#F7F6F4" fill-opacity="0.1"/>
<path d="M-285.371 644.587L-280.425 637.147C-164.371 678.025 -77.532 748.747 6.43163 817.211C112.134 903.397 212.085 984.401 364.14 1009.48C498.136 1031.3 835.716 1030.13 972.128 1000.12C1108.54 970.106 1169.27 879.573 1228.04 791.881C1280.61 713.637 1334.9 633.051 1442.21 593.343C1549.52 553.636 1646.25 602.79 1719.86 649.352C1774.37 684.503 1825.69 722.171 1873.53 762.122C1952.55 825.821 2020.87 880.827 2159 928.308L2154.17 935.832C2013.85 887.681 1944.84 832.091 1864.9 767.723C1817.45 728.023 1766.51 690.605 1712.39 655.705C1641.42 610.898 1547.11 563.751 1447.84 600.867C1344.33 639.07 1290.5 718.652 1238.74 795.643C1178.82 884.923 1116.82 977.295 975.808 1008.23C837.786 1038.49 497.216 1039.66 361.954 1017.75C206.219 992.676 105.233 910.085 -1.84962 822.812C-85.4683 754.933 -171.502 684.796 -285.371 644.587Z" fill="#F7F6F4" fill-opacity="0.1"/>
<path d="M-205.893 622.268L-200.488 614.828C-58.5544 670 10.2266 720.241 110.753 811.944L139.623 838.528C235.088 926.804 298.118 985.07 454.544 996.94C581.064 1006.55 821.108 975.456 951.309 950.378C1088.3 923.878 1157.08 847.305 1230 766.469C1284.17 706.281 1340.07 644.086 1426.34 605.381C1570.11 540.763 1667.07 604.128 1769.67 671.254L1777.37 676.27C1815.79 701.348 1846.38 723.919 1876.63 745.737C1953.35 801.662 2013.97 846.051 2141.18 887.849L2136.46 895.456C2006.72 852.99 1945.41 808.35 1867.89 751.756C1838.1 730.022 1807.28 707.534 1769.21 682.707L1761.38 677.607C1657.87 609.812 1568.27 551.296 1431.74 612.654C1347.78 650.356 1292.45 711.798 1239.09 771.485C1168.23 850.315 1094.85 931.82 953.609 959.072C822.603 984.15 580.604 1015.67 452.818 1005.97C291.792 993.68 227.267 934.244 130.076 844.296L101.206 817.796C2.29052 726.343 -65.8008 676.688 -205.893 622.268Z" fill="#F7F6F4" fill-opacity="0.1"/>
<path d="M-125.15 600.115L-119.515 592.843C20.3481 650.022 84.0684 699.259 182.754 795.059C194.256 805.842 204.723 816.71 215.305 827.326C297.083 908.915 367.589 979.386 512.053 982.061C590.955 983.565 696.082 954.223 789.593 928.393C839.51 914.516 886.553 901.475 926.81 893.617C1058.51 867.87 1137.41 804.254 1220.8 736.793C1284.98 684.964 1351.34 631.38 1443.59 597.608C1611.17 536.165 1757.24 632.383 1898.49 725.341C1976.01 776.417 2049.28 824.651 2124.15 846.553L2119.9 854.328C2043.07 831.841 1969.11 783.188 1890.78 731.527C1752.76 640.408 1609.22 546.197 1448.76 605.048C1358.47 638.068 1292.8 691.15 1229.42 742.394C1148.91 807.765 1064.83 875.31 929.8 901.224C890.119 908.999 843.306 921.956 793.733 935.749C699.648 961.914 592.911 991.507 511.708 990.002C362.183 987.244 289.492 915.185 205.988 831.841C195.407 821.224 184.71 810.44 173.553 799.656C75.9021 705.278 12.8721 656.626 -125.15 600.115Z" fill="#F7F6F4" fill-opacity="0.1"/>
<path d="M-47.5122 577.294L-41.4163 570.188C108.108 637.566 170.218 696.25 266.833 794.223C275.23 802.582 284.086 812.029 293.403 821.976C353.212 885.676 434.991 972.865 543.683 973.701C611.659 974.203 688.607 936 763.024 899.051C815.587 872.969 865.16 848.309 910.593 837.358C1014.8 812.279 1105.2 762.122 1192.5 713.972C1286.47 661.976 1383.66 608.224 1497.07 586.657C1658.1 556.228 1767.37 624.191 1883.54 696.25C1952.55 738.883 2023.74 783.021 2107.25 805.675L2103.22 813.533C2017.88 790.378 1945.76 745.738 1876.06 702.603C1762.19 632.049 1654.65 565.424 1499.95 594.765C1388.84 615.915 1296.83 666.741 1199.52 720.659C1111.42 769.395 1020.21 819.719 914.273 845.299C870.336 855.916 821.338 880.158 769.58 905.906C693.668 943.607 615.11 982.562 543.568 982.061C428.55 981.141 345.046 891.862 283.972 826.741C274.655 816.793 265.798 807.431 257.517 799.071C161.822 702.018 100.402 643.835 -47.5122 577.294Z" fill="#F7F6F4" fill-opacity="0.1"/>
<path d="M23.9138 552.967L28.6296 545.36C102.01 569.11 167.98 603.454 222.532 646.307C277.084 689.16 319.079 739.627 345.966 794.64C395.194 895.874 490.199 949.291 628.566 953.471C684.81 943.105 717.476 908.998 752.211 872.885C786.947 836.772 821.223 800.91 881.377 782.519L883.218 782.519C1002.51 777.204 1116.4 744.509 1208.49 689.144C1310.29 630.215 1427.78 587.238 1553.55 562.915C1688.69 552.8 1787.49 611.15 1883.07 667.576C1947.6 705.863 2014.2 745.236 2091.95 764.379L2088.15 772.739C2008.44 752.676 1941.16 712.968 1876.06 674.514C1777.95 616.583 1685.36 561.828 1555.85 571.525C1431.89 595.58 1316.1 637.985 1215.74 696.082C1121.95 752.179 1006.18 785.3 884.943 790.711C828.354 808.266 794.423 843.627 761.643 877.817C725.527 915.435 691.482 950.963 630.522 961.914L629.717 961.914L628.911 961.914C484.908 957.651 386.107 902.311 335.154 797.399C308.739 743.467 267.533 693.994 214.034 651.978C160.534 609.963 95.8542 576.279 23.9138 552.967Z" fill="#F7F6F4" fill-opacity="0.1"/>
<path d="M83.2628 525.716L88.2086 518.192C238.538 570.021 342.63 655.372 397.724 771.819C442.811 874.307 535.746 928.476 673.768 932.907C730.128 918.361 744.39 881.412 759.572 842.29C775.445 801.328 793.503 754.933 863.089 729.938L865.39 729.437C986.124 726.768 1103.71 700.802 1206.07 654.201C1318.08 604.521 1441.22 569.521 1569.88 550.794C1698.93 543.94 1784.73 590.168 1875.6 639.154C1936.9 672.174 2000.39 706.03 2078.84 723.585L2075.5 731.945C1994.99 714.306 1930.92 679.698 1868.47 646.176C1779.44 598.193 1695.25 552.801 1571.26 559.405C1444.31 577.916 1322.79 612.401 1212.17 661.307C1108.52 708.588 989.43 734.986 867.115 737.796C802.589 761.286 786.602 803.585 770.384 844.547C754.166 885.508 738.984 925.3 676.184 941.099L675.149 941.099L673.999 941.099C530.34 936.752 433.725 880.66 386.452 774.327C332.853 660.304 230.717 576.625 83.2628 525.716Z" fill="#F7F6F4" fill-opacity="0.1"/>
<path d="M127.315 494.619L132.606 487.263C289.951 547.2 397.839 641.077 453.048 766.135C500.55 876.397 591.07 919.616 729.092 898.299C760.888 854.613 769.092 803.873 752.096 756.02L752.096 755.352L752.096 754.683C754.856 726.344 766.588 706.031 787.177 694.244C807.765 682.457 833.759 679.698 867.69 683.794C957.33 677.221 1045.32 661.81 1129.24 637.984C1259.5 595.789 1394.39 561.591 1532.5 535.748C1682.02 521.035 1771.62 563.25 1866.74 607.974C1926.44 636.062 1988.32 665.153 2068.83 682.29L2065.61 690.649C1983.48 673.094 1920.91 643.752 1860.42 615.414C1767.14 571.526 1679.03 530.147 1534.68 544.358C1397.36 570.077 1263.24 604.108 1133.73 646.093C1048.49 670.316 959.099 685.981 868.035 692.655L867.115 692.655C835.715 688.81 811.331 691.736 794.538 701.015C777.745 710.294 766.473 729.27 763.828 754.85C781.191 805.217 771.828 858.489 737.604 904.067L736.338 905.739L733.808 905.739C589.575 928.811 491.464 882.499 442.121 768.309C387.832 645.759 281.9 553.553 127.315 494.619Z" fill="#F7F6F4" fill-opacity="0.1"/>
<path d="M152.044 458.841L157.334 451.484C315.14 511.756 421.877 606.302 473.866 732.614C519.873 843.628 610.048 887.432 748.875 866.366C775.888 817.301 776.626 762.661 750.945 713.22L750.945 711.966C749.565 681.705 758.767 660.137 778.435 647.682C798.103 635.226 824.442 632.384 859.868 636.731C950.266 629.359 1039.45 615.556 1126.14 595.518C1261.75 559.785 1400.36 530.383 1541.12 507.493C1686.74 495.121 1774.27 533.157 1866.86 573.366C1925.17 598.444 1985.33 624.777 2064.23 640.91L2061.12 649.27C1980.61 632.551 1919.88 606.302 1860.99 580.806C1770.13 541.265 1684.21 503.982 1542.96 516.02C1402.84 538.86 1264.85 568.121 1129.82 603.627C1042.08 623.922 951.82 637.921 860.328 645.425L858.718 645.425C826.168 641.328 801.209 644.338 786.026 654.286C770.844 664.233 761.297 684.129 763.022 711.381C789.742 763.298 788.427 820.642 759.342 871.883L758.192 873.973L755.201 874.475C609.818 897.38 511.822 850.65 463.859 735.373C411.526 610.9 306.974 518.026 152.044 458.841Z" fill="#F7F6F4" fill-opacity="0.1"/>
<path d="M154.69 418.966L159.98 411.609C317.096 471.547 423.028 565.591 474.786 691.067C520.794 800.911 611.428 845.049 750.141 825.739C776.656 775.643 776.656 720.18 750.141 670.085L750.141 668.831C748.416 638.486 757.387 616.751 776.94 604.045C796.493 591.338 822.948 588.162 858.488 592.174C948.661 583.338 1037.84 569.789 1125.33 551.631C1261.51 520.366 1401.38 493.114 1541.12 471.38C1685.93 459.593 1776.57 496.458 1872.61 535.246C1930.12 558.486 1988.78 582.477 2063.54 598.444L2060.2 606.803C1984.29 590.084 1924.71 566.344 1866.97 542.937C1772.66 504.65 1683.63 468.537 1542.96 479.906C1404.25 501.808 1264.62 528.726 1128.9 559.99C1040.53 578.3 950.472 591.962 859.409 600.868L857.798 600.868C825.133 597.106 800.289 600.367 784.877 610.565C769.464 620.764 760.378 640.743 761.873 668.162C789.391 720.786 788.652 779.01 759.802 831.256L758.652 833.346L755.662 833.847C610.278 854.913 512.167 807.849 463.974 693.826C412.906 570.189 308.815 477.816 154.69 418.966Z" fill="#F7F6F4" fill-opacity="0.1"/>
<path d="M144.798 385.862L150.089 378.422C224.077 405.262 289.7 442.851 342.899 488.863C396.098 534.875 435.74 588.332 459.374 645.926C507.106 751.004 596.016 793.387 731.278 775.498C762.892 728.078 770.271 674.031 752.096 623.021L752.096 622.435L752.096 622.268C753.476 592.926 764.633 572.111 785.106 559.154C805.579 546.197 831.114 543.104 866.655 546.448C954.529 536.333 1043.21 523.793 1130.05 509.332C1263.24 483.584 1399.54 460.846 1534.91 441.787C1676.5 431.505 1776.45 464.525 1883.53 499.384C1943.33 520.186 2005.29 537.544 2068.83 551.296L2065.72 559.656C2001.6 545.858 1939.1 528.358 1878.82 507.325C1773.81 472.884 1674.55 440.449 1536.64 450.397C1401.95 469.373 1265.88 492.195 1132.81 517.775C1045.28 532.404 956.024 544.943 867.574 555.142L865.964 555.142C833.989 552.048 809.26 555.643 792.583 565.842C775.905 576.04 764.978 595.769 763.598 622.268C782.272 675.509 774.113 731.85 740.594 781.099L739.329 783.021L736.453 783.021C594.98 802.582 498.135 757.274 448.907 648.266C425.641 591.724 386.644 539.258 334.332 494.12C282.02 448.982 217.509 412.134 144.798 385.862Z" fill="#F7F6F4" fill-opacity="0.1"/>
<path d="M126.281 360.365L131.227 352.842C202.125 376.359 265.452 410.419 317.12 452.823C368.787 495.228 407.649 545.034 431.195 599.029C481.343 697.587 569.218 736.542 699.879 718.152C739.515 674.721 757.572 622.759 751.062 570.857L751.062 569.771C763.944 515.517 806.271 491.024 876.547 496.959C1019.29 446.301 1294.64 431.505 1477.06 421.724C1493.74 420.888 1509.61 419.968 1524.45 419.132C1662.47 411.442 1777.49 436.688 1899.41 463.354C1956.34 475.81 2015.12 488.433 2077.11 498.213L2074.81 506.573C2012.36 496.959 1953.24 484.086 1896.07 471.547C1775.07 445.047 1660.86 420.052 1525.37 427.659C1510.53 428.495 1494.66 429.331 1477.86 430.251C1295.68 440.115 1020.44 454.911 879.768 505.486L878.273 505.988L876.547 505.988C811.677 500.136 774.296 521.536 761.529 571.275C768.148 625.456 748.94 679.644 707.125 724.756L705.86 726.26L703.559 726.26C567.032 746.156 471.452 704.358 419.233 602.122C396.361 549.183 358.473 500.317 308.014 458.676C257.555 417.035 195.646 383.545 126.281 360.365Z" fill="#F7F6F4" fill-opacity="0.1"/>
<path d="M100.976 340.971L105.346 333.196C172.255 352.092 232.664 381.399 282.338 419.061C332.011 456.723 369.745 501.828 392.893 551.212C446.722 641.411 533.791 675.685 658.816 655.622C708.385 616.604 739.916 567.293 748.99 514.597L748.99 513.761C774.064 463.019 821.912 440.114 891.153 445.631C1019.17 408.85 1219.07 406.843 1379.87 405.172C1427.03 404.67 1471.88 404.252 1510.99 402.998C1656.37 398.317 1800.84 412.946 1940.47 427.073C1989.12 432.005 2039.38 437.105 2089.19 441.368L2087.81 449.728C2038 445.464 1987.63 440.365 1938.28 435.433C1799.92 421.64 1655.91 406.676 1511.22 411.358C1471.77 412.611 1427.14 413.029 1379.75 413.531C1219.42 415.203 1019.86 417.209 893.799 453.74L892.419 453.74L891.038 453.74C826.283 448.306 783.381 468.62 759.802 515.935C750.307 570.602 717.345 621.703 665.602 661.975L664.337 662.978L662.611 662.978C532.295 684.379 437.75 647.597 381.736 553.803C359.087 505.608 322.225 461.59 273.73 424.828C225.234 388.066 166.276 359.446 100.976 340.971Z" fill="#F7F6F4" fill-opacity="0.1"/>
<path d="M70.8413 326.092L74.0619 317.732C133.001 329.052 187.354 350.463 232.577 380.175C277.8 409.887 312.578 447.036 334.004 488.517C383.577 564.755 466.965 601.286 581.409 597.19C655.136 585.821 691.021 544.191 729.093 500.136C768.659 454.243 809.606 406.761 897.365 389.791C1023.89 365.214 1182.84 374.159 1336.51 382.853C1409.54 387.033 1478.55 391.212 1540.66 391.212C1628.54 391.212 1717.56 388.872 1803.6 386.615C1901.82 384.023 2003.38 381.348 2103.68 382.184L2103.68 390.544C2003.61 389.708 1902.17 392.383 1804.63 394.974C1718.37 397.231 1629.34 399.572 1541.24 399.572C1478.67 399.572 1409.43 395.559 1336.16 391.212C1183.53 382.853 1025.61 373.657 900.93 397.816C817.657 413.95 777.861 460.094 739.904 504.567C701.948 549.039 663.302 593.345 583.939 605.466C463.4 610.147 376.906 572.028 324.457 492.195C303.576 451.77 269.64 415.583 225.505 386.677C181.37 357.771 128.328 336.994 70.8413 326.092Z" fill="#F7F6F4" fill-opacity="0.1"/>
<path d="M37.3711 314.053L39.4414 305.693C153.195 320.74 235.663 366.55 284.316 441.953C337.685 507.324 418.312 536.164 523.555 527.136C606.368 517.272 656.861 476.979 710.23 434.597C765.669 390.542 822.948 344.983 919.794 334.283C1034.81 321.242 1157.42 339.716 1276.35 357.689C1358.01 369.978 1442.44 382.768 1521.69 384.523C1642.34 387.198 1760.35 368.891 1874.45 351.085C1955.38 337.346 2037.33 327.019 2119.9 320.155L2120.93 328.515C2038.82 335.31 1957.33 345.582 1876.86 359.278C1761.84 377.083 1643.38 395.474 1521.34 392.716C1440.83 390.876 1356.17 378.086 1273.94 365.714C1156.16 347.909 1034.47 329.518 921.749 342.391C828.814 352.924 772.915 397.397 718.856 440.448C666.408 482.246 612.234 525.214 525.28 535.579C414.747 545.026 330.438 514.848 274.309 446.049C253.342 411.308 220.621 380.986 179.193 357.907C137.766 334.828 88.9783 319.742 37.3711 314.053Z" fill="#F7F6F4" fill-opacity="0.1"/>
<path d="M1.02539 303.019L4.59082 295.077C72.1067 310.793 129.731 343.395 185.4 374.994C270.974 423.395 351.832 469.122 463.4 456.332C552.77 446.133 620.055 407.094 685.156 369.31C758.653 326.676 834.68 282.622 943.143 278.107C1051.61 273.593 1152.94 301.848 1251.05 329.1C1331.56 351.587 1415.41 374.827 1501.79 379.257C1635.21 386.363 1766.33 349.832 1892.28 314.471C1971.98 292.235 2054.45 269.163 2136.58 257.376L2138.76 265.735C2058.25 277.355 1975.66 300.26 1896.42 322.413C1768.86 358.108 1636.93 394.973 1500.87 387.7C1412.88 383.019 1328.34 359.612 1246.91 336.875C1149.95 309.957 1049.53 282.036 943.833 286.718C838.131 291.399 764.404 334.367 692.402 376.164C626.151 414.618 557.6 454.409 465.24 464.942C348.612 478.317 262.118 429.331 178.384 381.932C123.405 350.417 66.5859 318.317 1.02539 303.019Z" fill="#F7F6F4" fill-opacity="0.1"/>
<path d="M-33.3657 292.068L-31.4106 283.708C35.7602 292.486 92.2341 314.555 146.753 335.788C215.764 362.789 281.095 388.285 365.288 387.867C473.751 387.366 566.226 347.157 655.71 308.285C749.68 267.407 846.871 225.108 963.73 227.783C1068.63 230.124 1154.78 265.15 1238.16 298.922C1304.76 325.84 1373.43 353.761 1451.41 364.962C1603.23 387.115 1756.32 329.685 1904.12 274.429C1986.36 243.666 2071.36 211.816 2153.37 195.265L2156.47 203.624C2075.96 219.842 1994.87 250.103 1909.3 282.12C1759.77 338.128 1605.19 396.143 1449.22 373.573C1369.52 362.037 1299.7 333.781 1232.76 306.697C1146.72 271.838 1065.52 238.985 963.5 236.644C850.092 234.053 754.281 275.683 661.691 315.976C570.942 355.433 477.087 396.227 365.519 396.728C278.449 397.146 208.863 369.978 141.462 343.646C87.5185 322.245 31.9648 300.594 -33.3657 292.068Z" fill="#F7F6F4" fill-opacity="0.1"/>
<path d="M-65.9155 271.169C4.01562 267.491 65.8957 281.451 125.705 294.91C182.525 307.7 240.724 320.908 306.86 319.069C416.588 315.976 519.529 280.281 619.135 245.756C734.154 205.882 852.968 164.669 982.134 174.283C1088.64 182.224 1163.52 226.111 1235.98 268.578C1295.33 303.353 1356.63 339.383 1435.31 355.433C1587.94 386.614 1757.36 308.369 1922.07 232.799C2009.83 192.423 2092.64 154.22 2169.24 134.742L2173.04 142.6C2097.7 161.827 2015.35 199.696 1928.16 239.821C1761.73 316.478 1589.66 395.642 1432.2 363.458C1351.69 346.739 1289 310.375 1228.73 275.098C1154.32 231.462 1084.04 190.249 980.984 182.558C854.463 173.196 742.78 212.151 624.426 253.363C523.785 288.222 419.808 324.335 307.665 327.428C240.034 329.268 180.339 315.892 122.715 302.852C61.0649 289.058 2.98071 275.934 -64.7654 279.529L-65.9155 271.169Z" fill="#F7F6F4" fill-opacity="0.1"/>
<path d="M-95.2454 254.451C-33.2727 250.688 28.9783 249.962 91.085 252.277C160.791 255.153 230.708 253.699 300.074 247.93C387.488 238.818 480.768 211.984 579.569 183.562C723.917 141.765 873.096 99.0477 1006.86 114.178C1116.02 126.467 1178.59 181.723 1239.09 235.14C1282.79 273.761 1327.99 313.72 1390.56 337.043C1541.93 393.553 1752.76 283.876 1938.17 187.575C2028.8 140.009 2114.03 95.6204 2183.27 75.5576L2187.41 83.3319C2119.55 102.893 2034.67 147.115 1944.84 193.928C1756.44 292.068 1542.27 403.333 1385.27 344.399C1320.63 320.24 1274.74 279.696 1230.23 240.407C1168.35 185.736 1109.92 134.158 1005.14 122.287C874.362 107.574 726.678 150.124 583.824 191.253C484.333 219.842 390.478 246.927 301.684 256.123C231.67 261.954 161.1 263.437 90.74 260.553C29.1699 258.236 -32.5454 258.962 -93.98 262.727L-95.2454 254.451Z" fill="#F7F6F4" fill-opacity="0.1"/>
<path d="M-118.48 232.966C-45.0982 228.034 29.3191 217.585 101.206 207.47C153.539 200.114 207.598 192.423 261.081 186.989C345.85 178.63 442.466 153.551 544.833 128.473C710.804 86.6753 882.412 43.0388 1022.16 63.3523C1135.8 80.0713 1189.63 142.099 1241.73 202.287C1279.34 245.756 1318.1 290.647 1379.75 318.233C1500.29 372.737 1603.46 315.642 1703.3 260.469C1717.45 252.695 1731.36 244.921 1745.28 237.648C1786.57 215.83 1823.95 194.847 1860.3 174.534C1965.2 115.516 2055.83 64.5227 2195.12 20.5518L2199.6 28.2425C2061.58 71.7955 1971.64 122.454 1867.32 181.138C1831.09 201.451 1793.59 222.517 1752.3 244.419C1738.61 251.692 1724.69 259.383 1710.66 267.157C1612.55 321.41 1501.33 382.852 1374 325.673C1310.63 297.084 1271.06 251.357 1232.87 207.136C1179.74 145.693 1129.36 87.6785 1020.66 71.8791C884.022 52.0671 713.91 95.0348 549.088 136.665C446.146 162.663 349.071 186.822 263.152 195.934C210.013 201.368 155.955 208.975 103.851 216.331C30.8799 227.558 -42.8264 236.096 -116.985 241.911L-118.48 232.966Z" fill="#F7F6F4" fill-opacity="0.1"/>
<path d="M-134.122 204.878C-65.9158 202.286 -4.15113 185.734 61.4097 168.179C116.158 153.55 172.863 138.336 233.937 131.983C316.061 123.623 413.252 101.136 516.193 77.3955C699.073 35.598 888.048 -8.20578 1032.51 14.95C1150.98 34.0097 1197.56 101.136 1242.65 166.006C1275.43 213.237 1309.25 262.057 1370.67 292.569C1490.29 351.754 1599.44 287.47 1695.59 230.709C1711.12 221.513 1725.84 212.903 1740.45 204.794C1784.39 180.384 1823.72 156.894 1861.8 134.24C1967.73 70.9586 2059.17 16.3712 2202.25 -30.7764L2206.97 -23.1692C2065.38 23.4768 1974.4 77.8135 1869.04 140.677C1830.97 163.415 1791.52 186.988 1747.47 211.398C1732.97 219.758 1718.37 228.117 1702.84 237.145C1603.46 295.662 1490.86 362.538 1364.23 299.424C1300.27 267.741 1265.77 218.002 1232.41 169.851C1186.41 103.728 1143.27 41.2825 1029.98 23.1424C888.623 0.404523 701.143 43.6231 519.759 85.337C416.242 109.162 318.591 131.648 235.548 140.259C175.623 146.445 119.494 161.492 65.2051 176.037C1.94506 192.756 -63.5005 210.562 -133.432 213.237L-134.122 204.878Z" fill="#F7F6F4" fill-opacity="0.1"/>
<path d="M-140.332 177.042L-140.332 168.682C-93.5195 168.682 -66.1453 157.564 -36.8154 145.526C-22.0315 139.185 -6.6587 133.599 9.19189 128.807C84.8743 106.989 126.511 94.9515 220.711 84.5022C300.304 75.6411 395.424 54.9931 496.181 33.0913C680.21 -6.86709 887.244 -52.0919 1036.77 -29.1033C1160.76 -9.87645 1202.51 59.8417 1242.88 127.303C1272.44 176.707 1302.92 227.617 1365.61 259.717C1485 320.658 1595.64 253.615 1693.75 194.43C1709.17 185.151 1723.66 176.289 1738.04 168.181C1784.04 142.015 1824.88 116.77 1864.56 92.4437C1969.45 27.4905 2060.09 -28.5181 2205.82 -76L2210.53 -68.3929C2066.3 -21.4126 1976.24 34.2617 1872.03 98.797C1832.47 123.207 1791.52 148.452 1745.51 174.785C1731.37 183.144 1716.87 191.504 1701.58 200.866C1605.53 258.881 1486.03 331.107 1359.51 266.572C1294.18 233.134 1262.89 181.138 1232.99 130.647C1191.93 62.0988 1153.28 -2.60372 1035.04 -20.911C889.084 -43.4817 682.626 1.49246 500.436 41.1164C399.335 63.1019 303.869 83.8334 223.471 92.7781C130.536 103.144 91.7751 114.262 14.4827 136.582C-1.04395 141.358 -16.0737 146.946 -30.4895 153.301C-61.6594 165.422 -90.4141 177.293 -140.332 177.042Z" fill="#F7F6F4" fill-opacity="0.1"/>
</g>
<defs>
<filter id="filter0_f_164_54" x="-840" y="-60" width="3450" height="1065" filterUnits="userSpaceOnUse" color-interpolation-filters="sRGB">
<feFlood flood-opacity="0" result="BackgroundImageFix"/>
<feBlend mode="normal" in="SourceGraphic" in2="BackgroundImageFix" result="shape"/>
<feGaussianBlur stdDeviation="50" result="effect1_foregroundBlur_164_54"/>
</filter>
<linearGradient id="paint0_linear_164_54" x1="885" y1="40" x2="885" y2="905" gradientUnits="userSpaceOnUse">
<stop stop-color="#F7F6F4"/>
<stop offset="0.474" stop-color="#71FFC3" stop-opacity="0.5"/>
<stop offset="1" stop-color="#209765"/>
</linearGradient>
<clipPath id="clip0_164_54">
<rect width="1770" height="800" rx="40" fill="white"/>
</clipPath>
</defs>
</svg>
