<svg width="36" height="36" viewBox="0 0 36 36" fill="none" xmlns="http://www.w3.org/2000/svg">
<path d="M18.0017 9.48877C16.2244 9.48877 14.4871 10.0158 13.0093 11.0032C11.5316 11.9906 10.3798 13.394 9.69965 15.036C9.01952 16.678 8.84156 18.4848 9.18829 20.2279C9.53502 21.971 10.3909 23.5722 11.6476 24.8289C12.9043 26.0857 14.5055 26.9415 16.2486 27.2882C17.9917 27.6349 19.7985 27.457 21.4405 26.7769C23.0825 26.0967 24.4859 24.945 25.4733 23.4672C26.4607 21.9895 26.9877 20.2521 26.9877 18.4748C26.9878 17.2948 26.7554 16.1262 26.3038 15.036C25.8522 13.9457 25.1903 12.9551 24.3558 12.1207C23.5214 11.2862 22.5308 10.6243 21.4405 10.1727C20.3503 9.72116 19.1818 9.48875 18.0017 9.48877ZM18.0017 24.3086C16.8479 24.3086 15.72 23.9664 14.7606 23.3254C13.8012 22.6844 13.0535 21.7732 12.612 20.7072C12.1704 19.6413 12.0549 18.4683 12.28 17.3366C12.5051 16.205 13.0607 15.1655 13.8766 14.3496C14.6925 13.5338 15.732 12.9782 16.8636 12.7531C17.9953 12.528 19.1683 12.6435 20.2342 13.0851C21.3002 13.5266 22.2113 14.2744 22.8524 15.2337C23.4934 16.1931 23.8355 17.321 23.8355 18.4748C23.8356 19.241 23.6848 19.9996 23.3916 20.7074C23.0985 21.4153 22.6688 22.0584 22.127 22.6001C21.5853 23.1419 20.9421 23.5716 20.2343 23.8647C19.5265 24.1579 18.7678 24.3087 18.0017 24.3086Z" fill="white"/>
<path d="M35.3941 11.2582C35.3654 9.80654 35.0905 8.37024 34.5812 7.01052C34.141 5.84307 33.4523 4.78529 32.5627 3.91047C31.6891 3.01997 30.6316 2.33105 29.4641 1.89189C28.1044 1.38227 26.6681 1.10742 25.2163 1.07909C23.3504 0.994144 22.7539 0.973145 18.0015 0.973145C13.249 0.973145 12.652 0.992849 10.7851 1.07909C9.33338 1.10778 7.8971 1.38261 6.53738 1.89189C5.3696 2.33145 4.31169 3.0203 3.43732 3.91047C2.54633 4.78413 1.85739 5.84225 1.41887 7.01052C0.909597 8.37025 0.63476 9.80654 0.606068 11.2582C0.51981 13.1241 0.5 13.7207 0.5 18.4731C0.5 23.2256 0.51981 23.8221 0.606033 25.688C0.63473 27.1397 0.909579 28.576 1.41887 29.9358C1.85752 31.104 2.54644 32.1621 3.43732 33.0358C4.31211 33.9254 5.36991 34.6142 6.53738 35.0543C7.89714 35.5634 9.3334 35.8382 10.7851 35.8671C12.652 35.952 13.2476 35.9731 18 35.9731C22.7524 35.9731 23.349 35.9533 25.2149 35.8671C26.6666 35.8384 28.1029 35.5636 29.4626 35.0543C30.6253 34.6048 31.6812 33.9172 32.5627 33.0358C33.4442 32.1544 34.1317 31.0984 34.5812 29.9358C35.0911 28.5762 35.366 27.1398 35.3941 25.688C35.4789 23.8207 35.4986 23.2256 35.4986 18.4731C35.4986 13.7207 35.4789 13.1241 35.3941 11.2582ZM32.2458 25.5453C32.2323 26.6551 32.0287 27.7543 31.6438 28.7952C31.3525 29.5499 30.9065 30.2352 30.3343 30.8071C29.7622 31.379 29.0767 31.8247 28.3219 32.1157C27.2812 32.5015 26.1818 32.7051 25.072 32.7177C23.2273 32.8025 22.6733 32.8195 17.9999 32.8195C13.3265 32.8195 12.774 32.8025 10.9299 32.7177C9.82008 32.705 8.72073 32.5014 7.68001 32.1157C6.91989 31.8348 6.23215 31.3875 5.66709 30.8067C5.08537 30.2429 4.63798 29.5554 4.35808 28.7952C3.97225 27.7546 3.76861 26.6552 3.75608 25.5453C3.67121 23.7007 3.65432 23.1467 3.65432 18.4733C3.65432 13.7999 3.67268 13.2474 3.75608 11.4012C3.77007 10.2915 3.97367 9.19244 4.35808 8.15142C4.63898 7.39129 5.08622 6.70356 5.66709 6.1385C6.23117 5.55644 6.91919 5.10902 7.68001 4.8295C8.7207 4.44371 9.82007 4.24007 10.9299 4.2275C12.7745 4.14264 13.3286 4.12573 17.9999 4.12573C22.6712 4.12573 23.2258 4.14409 25.072 4.2275C26.1817 4.24148 27.2808 4.44508 28.3219 4.8295C29.0769 5.12044 29.7626 5.56636 30.3348 6.13852C30.9069 6.71069 31.3529 7.39639 31.6438 8.15143C32.0296 9.19208 32.2332 10.2914 32.2458 11.4012C32.3307 13.2474 32.3476 13.8 32.3476 18.4733C32.3476 23.1466 32.3307 23.6991 32.2458 25.5453Z" fill="white"/>
<path d="M27.3422 7.03174C26.7854 7.03184 26.2506 7.25312 25.857 7.64691C25.4633 8.0407 25.2421 8.57474 25.2422 9.13156C25.2422 9.68839 25.4635 10.2224 25.8572 10.6161C26.251 11.0098 26.785 11.231 27.3418 11.231C27.8986 11.231 28.4327 11.0098 28.8264 10.6161C29.2202 10.2224 29.4414 9.68839 29.4415 9.13156C29.4415 8.57474 29.2204 8.0407 28.8267 7.64691C28.433 7.25312 27.899 7.03184 27.3422 7.03174Z" fill="white"/>
</svg>
