<svg width="36" height="36" viewBox="0 0 36 36" fill="none" xmlns="http://www.w3.org/2000/svg">
<path d="M18.0017 9.01367C16.2244 9.01367 14.4871 9.5407 13.0093 10.5281C11.5316 11.5155 10.3798 12.9189 9.69965 14.5609C9.01952 16.2029 8.84156 18.0097 9.18829 19.7528C9.53502 21.4959 10.3909 23.0971 11.6476 24.3538C12.9043 25.6106 14.5055 26.4664 16.2486 26.8131C17.9917 27.1599 19.7985 26.9819 21.4405 26.3018C23.0825 25.6216 24.4859 24.4699 25.4733 22.9921C26.4607 21.5144 26.9877 19.777 26.9877 17.9997C26.9878 16.8197 26.7554 15.6511 26.3038 14.5609C25.8522 13.4706 25.1903 12.48 24.3558 11.6456C23.5214 10.8111 22.5308 10.1492 21.4405 9.69765C20.3503 9.24606 19.1818 9.01365 18.0017 9.01367ZM18.0017 23.8335C16.8479 23.8335 15.72 23.4913 14.7606 22.8503C13.8012 22.2093 13.0535 21.2981 12.612 20.2322C12.1704 19.1662 12.0549 17.9932 12.28 16.8615C12.5051 15.7299 13.0607 14.6904 13.8766 13.8745C14.6925 13.0587 15.732 12.5031 16.8636 12.278C17.9953 12.0529 19.1683 12.1684 20.2342 12.61C21.3002 13.0515 22.2113 13.7993 22.8524 14.7586C23.4934 15.718 23.8355 16.8459 23.8355 17.9997C23.8356 18.7659 23.6848 19.5245 23.3916 20.2323C23.0985 20.9402 22.6688 21.5833 22.127 22.125C21.5853 22.6668 20.9421 23.0965 20.2343 23.3896C19.5265 23.6828 18.7678 23.8336 18.0017 23.8335Z" fill="#0D4B34"/>
<path d="M35.3941 10.7851C35.3654 9.33339 35.0905 7.8971 34.5812 6.53738C34.141 5.36993 33.4523 4.31214 32.5627 3.43732C31.6891 2.54682 30.6316 1.8579 29.4641 1.41875C28.1044 0.909121 26.6681 0.634272 25.2163 0.605945C23.3504 0.521 22.7539 0.5 18.0015 0.5C13.249 0.5 12.652 0.519705 10.7851 0.605945C9.33338 0.634632 7.8971 0.909469 6.53738 1.41875C5.3696 1.8583 4.31169 2.54715 3.43732 3.43732C2.54633 4.31099 1.85739 5.36911 1.41887 6.53738C0.909597 7.8971 0.63476 9.3334 0.606068 10.7851C0.51981 12.651 0.5 13.2476 0.5 18C0.5 22.7524 0.51981 23.3489 0.606033 25.2148C0.63473 26.6665 0.909579 28.1029 1.41887 29.4626C1.85752 30.6308 2.54644 31.6889 3.43732 32.5627C4.31211 33.4523 5.36991 34.141 6.53738 34.5811C7.89714 35.0902 9.3334 35.3651 10.7851 35.394C12.652 35.4788 13.2476 35.5 18 35.5C22.7524 35.5 23.349 35.4802 25.2149 35.394C26.6666 35.3653 28.1029 35.0904 29.4626 34.5811C30.6253 34.1316 31.6812 33.4441 32.5627 32.5627C33.4442 31.6812 34.1317 30.6253 34.5812 29.4626C35.0911 28.103 35.366 26.6666 35.3941 25.2148C35.4789 23.3476 35.4986 22.7524 35.4986 18C35.4986 13.2476 35.4789 12.651 35.3941 10.7851ZM32.2458 25.0722C32.2323 26.1819 32.0287 27.2811 31.6438 28.3221C31.3525 29.0768 30.9065 29.7621 30.3343 30.334C29.7622 30.9058 29.0767 31.3516 28.3219 31.6425C27.2812 32.0283 26.1818 32.232 25.072 32.2445C23.2273 32.3293 22.6733 32.3463 17.9999 32.3463C13.3265 32.3463 12.774 32.3293 10.9299 32.2445C9.82008 32.2318 8.72073 32.0282 7.68001 31.6425C6.91989 31.3616 6.23215 30.9144 5.66709 30.3335C5.08537 29.7698 4.63798 29.0823 4.35808 28.3221C3.97225 27.2814 3.76861 26.182 3.75608 25.0722C3.67121 23.2276 3.65432 22.6735 3.65432 18.0001C3.65432 13.3267 3.67268 12.7742 3.75608 10.928C3.77007 9.81838 3.97367 8.71929 4.35808 7.67827C4.63898 6.91815 5.08622 6.23041 5.66709 5.66535C6.23117 5.0833 6.91919 4.63588 7.68001 4.35635C8.7207 3.97057 9.82007 3.76692 10.9299 3.75435C12.7745 3.6695 13.3286 3.65259 17.9999 3.65259C22.6712 3.65259 23.2258 3.67095 25.072 3.75435C26.1817 3.76833 27.2808 3.97193 28.3219 4.35635C29.0769 4.64729 29.7626 5.09322 30.3348 5.66538C30.9069 6.23754 31.3529 6.92324 31.6438 7.67829C32.0296 8.71894 32.2332 9.81826 32.2458 10.928C32.3307 12.7743 32.3476 13.3268 32.3476 18.0001C32.3476 22.6734 32.3307 23.226 32.2458 25.0722Z" fill="#0D4B34"/>
<path d="M27.3422 6.55859C26.7854 6.5587 26.2506 6.77998 25.857 7.17377C25.4633 7.56755 25.2421 8.1016 25.2422 8.65842C25.2422 9.21524 25.4635 9.74924 25.8572 10.143C26.251 10.5367 26.785 10.7579 27.3418 10.7579C27.8986 10.7579 28.4327 10.5367 28.8264 10.143C29.2202 9.74924 29.4414 9.21524 29.4415 8.65842C29.4415 8.1016 29.2204 7.56755 28.8267 7.17377C28.433 6.77998 27.899 6.5587 27.3422 6.55859Z" fill="#0D4B34"/>
</svg>
