<svg width="42" height="42" viewBox="0 0 42 42" fill="none" xmlns="http://www.w3.org/2000/svg">
<path d="M30.9552 38.052C30.1677 38.0519 29.4028 37.789 28.7817 37.3047L21.7292 31.8412L17.0007 37.0615C16.7926 37.2909 16.5273 37.461 16.2319 37.5543C15.9366 37.6477 15.6217 37.6609 15.3195 37.5928C15.0174 37.5246 14.7387 37.3775 14.512 37.1664C14.2853 36.9553 14.1187 36.6878 14.0292 36.3912L10.4942 24.6977L4.14871 22.4927C3.46354 22.2542 2.86719 21.8128 2.43895 21.2272C2.01071 20.6416 1.77087 19.9395 1.7513 19.2142C1.73174 18.489 1.93338 17.775 2.32942 17.1671C2.72546 16.5593 3.29715 16.0863 3.96846 15.8112L35.3285 3.14998C35.9268 2.90665 36.5799 2.83005 37.2183 2.92832C37.8567 3.02659 38.4566 3.29606 38.954 3.70807C39.4515 4.12008 39.828 4.65923 40.0435 5.26816C40.2589 5.87709 40.3053 6.53303 40.1777 7.16623L34.4675 35.1925C34.2984 35.9996 33.857 36.7241 33.2172 37.2445C32.5774 37.7648 31.7781 38.0493 30.9535 38.0502L30.9552 38.052Z" fill="#0D4B34"/>
<path d="M15.6379 37.1335C15.3931 37.1205 15.157 37.0358 14.9593 36.8892C14.7439 36.7293 14.5856 36.5045 14.5078 36.2478L10.7139 23.7179L10.7138 23.7177C10.6294 23.4391 10.645 23.1398 10.7579 22.8714C10.8709 22.6031 11.074 22.3827 11.3323 22.2483L11.3325 22.2482L29.8247 12.6197L29.8258 12.6192C30.0906 12.4805 30.3964 12.4413 30.6877 12.5088C30.979 12.5763 31.2364 12.7459 31.4133 12.9869C31.5902 13.2279 31.6749 13.5244 31.6519 13.8225C31.629 14.1206 31.5 14.4006 31.2883 14.6117L31.2878 14.6122L18.8908 27.0074L18.7848 27.1134L18.7546 27.2602L16.9276 36.1362L16.9275 36.1366C16.8717 36.4088 16.7267 36.6547 16.5155 36.8353C16.307 37.0137 16.0457 37.1184 15.7719 37.1335H15.7041H15.6379Z" fill="white" stroke="#0D4B34"/>
</svg>
