<svg width="42" height="43" viewBox="0 0 42 43" fill="none" xmlns="http://www.w3.org/2000/svg">
<path d="M30.9552 38.5251C30.1677 38.5251 29.4028 38.2621 28.7817 37.7779L21.7292 32.3144L17.0007 37.5346C16.7926 37.764 16.5273 37.9341 16.2319 38.0275C15.9366 38.1208 15.6217 38.1341 15.3195 38.0659C15.0174 37.9978 14.7387 37.8506 14.512 37.6395C14.2853 37.4284 14.1187 37.1609 14.0292 36.8644L10.4942 25.1709L4.14871 22.9659C3.46354 22.7274 2.86719 22.286 2.43895 21.7003C2.01071 21.1147 1.77087 20.4126 1.7513 19.6874C1.73174 18.9621 1.93338 18.2481 2.32942 17.6403C2.72546 17.0324 3.29715 16.5595 3.96846 16.2844L35.3285 3.62313C35.9268 3.3798 36.5799 3.30319 37.2183 3.40146C37.8567 3.49974 38.4566 3.76921 38.954 4.18122C39.4515 4.59323 39.828 5.13237 40.0435 5.7413C40.2589 6.35023 40.3053 7.00618 40.1777 7.63938L34.4675 35.6656C34.2984 36.4728 33.857 37.1973 33.2172 37.7176C32.5774 38.2379 31.7781 38.5224 30.9535 38.5234L30.9552 38.5251Z" fill="white"/>
<path d="M15.6379 37.6067C15.3931 37.5937 15.157 37.5089 14.9593 37.3623C14.7439 37.2025 14.5856 36.9776 14.5078 36.7209L10.7139 24.191L10.7138 24.1909C10.6294 23.9123 10.645 23.6129 10.7579 23.3446C10.8709 23.0762 11.074 22.8558 11.3323 22.7215L11.3325 22.7214L29.8247 13.0929L29.8258 13.0924C30.0906 12.9537 30.3964 12.9145 30.6877 12.9819C30.979 13.0494 31.2364 13.219 31.4133 13.4601C31.5902 13.7011 31.6749 13.9975 31.6519 14.2956C31.629 14.5937 31.5 14.8737 31.2883 15.0848L31.2878 15.0853L18.8908 27.4806L18.7848 27.5866L18.7546 27.7334L16.9276 36.6094L16.9275 36.6097C16.8717 36.882 16.7267 37.1278 16.5155 37.3085C16.307 37.4868 16.0457 37.5915 15.7719 37.6067H15.7041H15.6379Z" fill="white" stroke="#209765"/>
</svg>
