<svg width="42" height="38" viewBox="0 0 42 38" fill="none" xmlns="http://www.w3.org/2000/svg">
<path d="M12.808 14.3828C12.5148 14.3828 12.2337 14.4993 12.0264 14.7065C11.8191 14.9138 11.7027 15.195 11.7027 15.4881V21.1404C11.7029 21.1947 11.695 21.2487 11.6795 21.3007L10.2338 18.9995C10.1272 18.8507 9.98666 18.7295 9.82386 18.6459C9.66106 18.5623 9.48067 18.5186 9.29764 18.5186C9.11461 18.5186 8.93422 18.5623 8.77142 18.6459C8.60861 18.7295 8.46809 18.8507 8.36148 18.9995L6.9169 21.2985C6.89938 21.2476 6.89078 21.1942 6.89148 21.1404V15.4881C6.89148 15.195 6.77503 14.9138 6.56776 14.7065C6.36048 14.4993 6.07935 14.3828 5.78622 14.3828C5.49308 14.3828 5.21196 14.4993 5.00468 14.7065C4.7974 14.9138 4.68095 15.195 4.68095 15.4881V21.1404C4.66929 21.6045 4.78894 22.0625 5.02612 22.4616C5.26331 22.8607 5.6084 23.1847 6.02164 23.3962C6.38259 23.5773 6.7881 23.6505 7.18957 23.607C7.59104 23.5634 7.97145 23.4051 8.28522 23.1509C8.38661 23.072 8.47372 22.9763 8.54274 22.8679L9.29764 21.6665L10.0581 22.8679C10.1263 22.9765 10.2131 23.0723 10.3145 23.1509C10.6279 23.4048 11.0079 23.5631 11.4089 23.6068C11.8099 23.6505 12.2151 23.5778 12.5759 23.3973C12.9893 23.1856 13.3346 22.8615 13.572 22.4622C13.8093 22.0629 13.9292 21.6048 13.9176 21.1404V15.4881C13.9176 15.3426 13.8889 15.1985 13.8331 15.0641C13.7773 14.9297 13.6955 14.8077 13.5924 14.705C13.4893 14.6023 13.3669 14.521 13.2323 14.4657C13.0977 14.4104 12.9535 14.3822 12.808 14.3828Z" fill="#0D4B34"/>
<path d="M24.5136 14.3828C24.2205 14.3828 23.9394 14.4993 23.7321 14.7065C23.5248 14.9138 23.4084 15.1949 23.4084 15.4881V21.1404C23.4087 21.195 23.4008 21.2494 23.3852 21.3018L21.9384 18.9995C21.8318 18.8507 21.6913 18.7295 21.5284 18.6459C21.3656 18.5622 21.1853 18.5186 21.0022 18.5186C20.8192 18.5186 20.6388 18.5622 20.476 18.6459C20.3132 18.7295 20.1727 18.8507 20.0661 18.9995L18.6215 21.2984C18.604 21.2476 18.5954 21.1941 18.5961 21.1404V15.4881C18.5961 15.1949 18.4796 14.9138 18.2723 14.7065C18.0651 14.4993 17.7839 14.3828 17.4908 14.3828C17.1977 14.3828 16.9165 14.4993 16.7093 14.7065C16.502 14.9138 16.3855 15.1949 16.3855 15.4881V21.1404C16.3739 21.6045 16.4935 22.0625 16.7307 22.4616C16.9679 22.8607 17.313 23.1847 17.7262 23.3962C18.0872 23.5773 18.4927 23.6505 18.8942 23.6069C19.2956 23.5634 19.676 23.4051 19.9898 23.1509C20.0912 23.0723 20.1779 22.9765 20.2462 22.8679L21.0022 21.6665L21.7582 22.8679C21.8265 22.9765 21.9133 23.0723 22.0146 23.1509C22.3284 23.4051 22.7088 23.5634 23.1103 23.6069C23.5118 23.6505 23.9173 23.5773 24.2782 23.3962C24.6915 23.1847 25.0366 22.8607 25.2737 22.4616C25.5109 22.0625 25.6306 21.6045 25.6189 21.1404V15.4881C25.6189 15.1949 25.5025 14.9138 25.2952 14.7065C25.0879 14.4993 24.8068 14.3828 24.5136 14.3828Z" fill="#0D4B34"/>
<path d="M36.2127 14.3828C35.9196 14.3828 35.6385 14.4993 35.4312 14.7065C35.2239 14.9138 35.1075 15.1949 35.1075 15.4881V21.1404C35.1077 21.195 35.0999 21.2494 35.0842 21.3018L33.6375 18.9995C33.5309 18.8507 33.3903 18.7295 33.2275 18.6459C33.0647 18.5622 32.8843 18.5186 32.7013 18.5186C32.5183 18.5186 32.3379 18.5622 32.1751 18.6459C32.0123 18.7295 31.8717 18.8507 31.7651 18.9995L30.3217 21.294C30.3041 21.2436 30.2955 21.1905 30.2962 21.1371V15.4881C30.2962 15.1949 30.1798 14.9138 29.9725 14.7065C29.7652 14.4993 29.4841 14.3828 29.191 14.3828C28.8978 14.3828 28.6167 14.4993 28.4094 14.7065C28.2022 14.9138 28.0857 15.1949 28.0857 15.4881V21.1404C28.0742 21.6048 28.194 22.0629 28.4314 22.4622C28.6688 22.8615 29.0141 23.1856 29.4275 23.3973C29.7883 23.5778 30.1934 23.6505 30.5945 23.6068C30.9955 23.5631 31.3754 23.4048 31.6889 23.1509C31.7886 23.0719 31.8739 22.9761 31.9409 22.8679L32.6969 21.6665L33.4518 22.8679C33.5208 22.9763 33.6079 23.072 33.7093 23.1509C34.0234 23.4044 34.4037 23.5624 34.8051 23.6059C35.2064 23.6494 35.6118 23.5766 35.9729 23.3962C36.3861 23.1847 36.7312 22.8607 36.9684 22.4616C37.2056 22.0625 37.3252 21.6045 37.3136 21.1404V15.4881C37.3136 15.1957 37.1977 14.9152 36.9914 14.7081C36.7851 14.5009 36.5051 14.384 36.2127 14.3828Z" fill="#0D4B34"/>
<path d="M38.6842 9.70515H37.3148C35.6953 6.85226 33.3558 4.47409 30.5298 2.80811C27.7039 1.14212 24.4903 0.24659 21.21 0.210938H20.7789C17.5004 0.248071 14.289 1.14432 11.465 2.81026C8.64108 4.4762 6.30339 6.85357 4.68521 9.70515H3.31579C2.43639 9.70515 1.593 10.0545 0.971172 10.6763C0.349341 11.2982 0 12.1415 0 13.0209V24.9799C0 25.8593 0.349341 26.7027 0.971172 27.3245C1.593 27.9463 2.43639 28.2957 3.31579 28.2957H4.68521C6.30467 31.1486 8.64418 33.5267 11.4702 35.1927C14.2961 36.8587 17.5097 37.7542 20.79 37.7899H21.2211C24.4992 37.7524 27.7102 36.8559 30.5337 35.19C33.3572 33.5241 35.6946 31.1469 37.3126 28.2957H38.6842C39.5636 28.2957 40.407 27.9463 41.0288 27.3245C41.6507 26.7027 42 25.8593 42 24.9799V13.0209C42 12.1415 41.6507 11.2982 41.0288 10.6763C40.407 10.0545 39.5636 9.70515 38.6842 9.70515ZM34.7274 9.70515H27.9101C26.9579 7.16851 25.6101 4.7986 23.9168 2.68341C26.097 3.0706 28.1773 3.89161 30.0343 5.09777C31.8913 6.30394 33.4872 7.8707 34.7274 9.70515ZM25.5371 9.70515H16.4684C17.5489 7.11875 19.0836 4.74665 21 2.7011C22.9184 4.74621 24.455 7.11834 25.5371 9.70515ZM18.0854 2.68231C16.3906 4.79727 15.042 7.16766 14.0899 9.70515H7.27263C8.513 7.87029 10.1092 6.30321 11.9666 5.09685C13.824 3.89049 15.9047 3.06941 18.0854 2.68231ZM7.27263 28.2957H14.0899C15.0421 30.8323 16.3899 33.2022 18.0832 35.3174C15.903 34.9302 13.8227 34.1092 11.9657 32.9031C10.1087 31.6969 8.51281 30.1301 7.27263 28.2957ZM16.4629 28.2957H25.5371C24.455 30.8825 22.9184 33.2546 21 35.2997C19.0836 33.2542 17.5489 30.8821 16.4684 28.2957H16.4629ZM23.9146 35.3185C25.6094 33.2036 26.958 30.8332 27.9101 28.2957H34.7274C33.487 30.1305 31.8908 31.6976 30.0334 32.904C28.176 34.1103 26.0953 34.9314 23.9146 35.3185ZM39.7895 24.9799C39.7895 25.273 39.673 25.5541 39.4657 25.7614C39.2585 25.9687 38.9773 26.0851 38.6842 26.0851H3.31579C3.02266 26.0851 2.74153 25.9687 2.53425 25.7614C2.32697 25.5541 2.21053 25.273 2.21053 24.9799V13.0209C2.21053 12.7278 2.32697 12.4467 2.53425 12.2394C2.74153 12.0321 3.02266 11.9157 3.31579 11.9157H38.6842C38.9773 11.9157 39.2585 12.0321 39.4657 12.2394C39.673 12.4467 39.7895 12.7278 39.7895 13.0209V24.9799Z" fill="#0D4B34"/>
</svg>
